<?xml version="1.0" encoding="UTF-8" standalone="no"?>
<!DOCTYPE svg PUBLIC "-//W3C//DTD SVG 1.1//EN"
 "http://www.w3.org/Graphics/SVG/1.1/DTD/svg11.dtd">
<!-- Generated by graphviz version 5.0.0 (20220707.1540)
 -->
<!-- Title: dependencies Pages: 1 -->
<svg width="295pt" height="250pt"
 viewBox="0.00 0.00 295.00 249.80" xmlns="http://www.w3.org/2000/svg" xmlns:xlink="http://www.w3.org/1999/xlink">
<g id="graph0" class="graph" transform="scale(1 1) rotate(0) translate(4 245.8)">
<title>dependencies</title>
<polygon fill="white" stroke="transparent" points="-4,4 -4,-245.8 291,-245.8 291,4 -4,4"/>
<text text-anchor="middle" x="143.5" y="-8.2" font-family="sans-serif" font-size="14.00">dependencies</text>
<g id="clust1" class="cluster">
<title>cluster_AppModule</title>
<polygon fill="none" stroke="black" stroke-dasharray="1,5" points="8,-108.8 8,-233.8 264,-233.8 264,-108.8 8,-108.8"/>
</g>
<g id="clust3" class="cluster">
<title>cluster_AppModule_imports</title>
<polygon fill="none" stroke="black" points="154,-116.8 154,-168.8 256,-168.8 256,-116.8 154,-116.8"/>
</g>
<g id="clust6" class="cluster">
<title>cluster_AppModule_providers</title>
<polygon fill="none" stroke="black" points="16,-116.8 16,-168.8 146,-168.8 146,-116.8 16,-116.8"/>
</g>
<g id="clust7" class="cluster">
<title>cluster_UserModule</title>
<polygon fill="none" stroke="black" stroke-dasharray="1,5" points="131,-32.8 131,-100.8 279,-100.8 279,-32.8 131,-32.8"/>
</g>
<g id="clust12" class="cluster">
<title>cluster_UserModule_providers</title>
<polygon fill="none" stroke="black" points="139,-40.8 139,-92.8 271,-92.8 271,-40.8 139,-40.8"/>
</g>
<!-- UserModule -->
<g id="node1" class="node">
<title>UserModule</title>
<polygon fill="#8dd3c7" stroke="black" points="247.99,-160.8 244.99,-164.8 223.99,-164.8 220.99,-160.8 162.01,-160.8 162.01,-124.8 247.99,-124.8 247.99,-160.8"/>
<text text-anchor="middle" x="205" y="-138.6" font-family="Times,serif" font-size="14.00">UserModule</text>
</g>
<!-- AppModule -->
<g id="node2" class="node">
<title>AppModule</title>
<polygon fill="#8dd3c7" stroke="black" points="184.66,-225.8 181.66,-229.8 160.66,-229.8 157.66,-225.8 101.34,-225.8 101.34,-189.8 184.66,-189.8 184.66,-225.8"/>
<text text-anchor="middle" x="143" y="-203.6" font-family="Times,serif" font-size="14.00">AppModule</text>
</g>
<!-- UserModule&#45;&gt;AppModule -->
<g id="edge1" class="edge">
<title>UserModule&#45;&gt;AppModule</title>
<path fill="none" stroke="black" d="M173.42,-160.91C173.42,-160.91 173.42,-179.79 173.42,-179.79"/>
<polygon fill="black" stroke="black" points="169.92,-179.79 173.42,-189.79 176.92,-179.79 169.92,-179.79"/>
</g>
<!-- AppService -->
<g id="node3" class="node">
<title>AppService</title>
<ellipse fill="#fdb462" stroke="black" cx="81" cy="-142.8" rx="56.75" ry="18"/>
<text text-anchor="middle" x="81" y="-138.6" font-family="Times,serif" font-size="14.00">AppService</text>
</g>
<!-- AppService&#45;&gt;AppModule -->
<g id="edge2" class="edge">
<title>AppService&#45;&gt;AppModule</title>
<path fill="none" stroke="black" d="M119.4,-156.27C119.4,-156.27 119.4,-179.66 119.4,-179.66"/>
<polygon fill="black" stroke="black" points="115.9,-179.66 119.4,-189.66 122.9,-179.66 115.9,-179.66"/>
</g>
<!-- UserService -->
<g id="node4" class="node">
<title>UserService</title>
<ellipse fill="#fdb462" stroke="black" cx="205" cy="-66.8" rx="58.46" ry="18"/>
<text text-anchor="middle" x="205" y="-62.6" font-family="Times,serif" font-size="14.00">UserService</text>
</g>
<!-- UserService&#45;&gt;UserModule -->
<g id="edge3" class="edge">
<title>UserService&#45;&gt;UserModule</title>
<path fill="none" stroke="black" d="M205,-84.81C205,-84.81 205,-114.65 205,-114.65"/>
<polygon fill="black" stroke="black" points="201.5,-114.65 205,-124.65 208.5,-114.65 201.5,-114.65"/>
</g>
</g>
</svg>
